<svg id="Layer_1" data-name="Layer 1" xmlns="http://www.w3.org/2000/svg" xmlns:xlink="http://www.w3.org/1999/xlink" viewBox="0 0 194.18 133.69"><defs><style>.cls-1{fill:#4085c6;}.cls-2{fill:#009f5e;}.cls-3{fill:#00a15b;}.cls-4,.cls-6{fill:#007b3d;}.cls-4{fill-rule:evenodd;}.cls-5{fill:url(#linear-gradient);}</style><linearGradient id="linear-gradient" x1="109.91" y1="38.46" x2="133.58" y2="75.91" gradientUnits="userSpaceOnUse"><stop offset="0" stop-color="#084783"/><stop offset="0.32" stop-color="#028ec0"/><stop offset="0.47" stop-color="#00acda"/></linearGradient></defs><title>aquin_notas</title><path class="cls-1" d="M20.67,115.66l-2.28-5.58H7.86l-2.28,5.58H0L10.67,90.59h5.05l10.67,25.07ZM13.13,97.17l-3.31,8.07h6.61Z" transform="translate(0 0)"/><path class="cls-1" d="M47.44,115.66l-2.65-2.38a12.92,12.92,0,0,1-7.18,2.07,13.08,13.08,0,0,1-5.14-1,12.6,12.6,0,0,1-4.06-2.66,11.71,11.71,0,0,1-2.65-3.93,12.27,12.27,0,0,1-1-4.85v-.07a12.23,12.23,0,0,1,1-4.84,12.59,12.59,0,0,1,2.68-4,12.3,12.3,0,0,1,4.07-2.69,13.89,13.89,0,0,1,10.3,0,12.81,12.81,0,0,1,4,2.65A11.87,11.87,0,0,1,49.53,98a12.4,12.4,0,0,1,.95,4.84v.07a12.2,12.2,0,0,1-2.14,6.94l2.48,2.1Zm-2.52-12.8a8,8,0,0,0-.53-2.93,7.26,7.26,0,0,0-1.52-2.41,7.17,7.17,0,0,0-2.33-1.64,7,7,0,0,0-2.93-.61,7.23,7.23,0,0,0-3,.59,6.67,6.67,0,0,0-2.28,1.62,7.56,7.56,0,0,0-1.48,2.4,7.84,7.84,0,0,0-.54,2.91v.07a8,8,0,0,0,.54,2.94,7.1,7.1,0,0,0,1.52,2.41,7.2,7.2,0,0,0,2.31,1.64,7.07,7.07,0,0,0,3,.6,7.72,7.72,0,0,0,3.17-.65l-3.93-3.35,3.38-3.79,4,3.58a7.89,7.89,0,0,0,.65-3.31Z" transform="translate(0 0)"/><path class="cls-1" d="M72.21,109.41A9.22,9.22,0,0,1,70,112.89,8.9,8.9,0,0,1,66.61,115a13.79,13.79,0,0,1-4.49.68,10.83,10.83,0,0,1-7.84-2.75c-1.9-1.84-2.86-4.58-2.86-8.23V90.56h5.44v14a6.48,6.48,0,0,0,1.42,4.57,5,5,0,0,0,3.91,1.54,5.13,5.13,0,0,0,3.92-1.48,6.21,6.21,0,0,0,1.42-4.45V90.56H73v14A14.45,14.45,0,0,1,72.21,109.41Z" transform="translate(0 0)"/><path class="cls-1" d="M74.61,115.66V90.35h5.57v25.31Z" transform="translate(0 0)"/><path class="cls-2" d="M85.12,90.35h5.67l10.4,17h.29l-.29-4.88V90.35H106v25.31h-5.13l-11-17.92h-.28l.28,4.88v13h-4.8Z" transform="translate(0 0)"/><path class="cls-2" d="M121.19,115.66a13.39,13.39,0,0,1-5.1-1.12,12.54,12.54,0,0,1-4-2.81,12.33,12.33,0,0,1-2.61-4.1,13,13,0,0,1,.27-9.91,12.47,12.47,0,0,1,2.83-4,12.69,12.69,0,0,1,4.17-2.58,13.86,13.86,0,0,1,10.26.29,12.52,12.52,0,0,1,4,2.8,12.33,12.33,0,0,1,2.61,4.1,13,13,0,0,1-.27,9.91,12.36,12.36,0,0,1-2.83,3.95,12.52,12.52,0,0,1-4.17,2.58A13.27,13.27,0,0,1,121.19,115.66Zm.12-4.33a8.53,8.53,0,0,0,3.25-.52,8.24,8.24,0,0,0,2.67-1.62,7.78,7.78,0,0,0,1.84-2.57,8.85,8.85,0,0,0,.73-3.39,8.76,8.76,0,0,0-.55-3.41,7.52,7.52,0,0,0-1.69-2.67A8,8,0,0,0,125,95.38a8.86,8.86,0,0,0-6.46-.18,8.24,8.24,0,0,0-2.67,1.62A7.82,7.82,0,0,0,114,99.4a9.35,9.35,0,0,0-.18,6.8,7.52,7.52,0,0,0,1.69,2.67,8.15,8.15,0,0,0,2.58,1.76A8.55,8.55,0,0,0,121.31,111.33Z" transform="translate(0 0)"/><path class="cls-2" d="M141.83,115.66V94.87h-7.22V90.35h19.32v4.52h-7.22v20.79Z" transform="translate(0 0)"/><path class="cls-2" d="M161.05,90.35h5.57l9.71,25.31H171l-2.13-6h-10l-2.13,6h-5.38Zm6.18,14.88-2.31-6.33L164,95.83h-.29l-.94,3.07-2.31,6.33Z" transform="translate(0 0)"/><path class="cls-2" d="M185.7,115.66a10.21,10.21,0,0,1-3-.44A8.71,8.71,0,0,1,180,113.9a9.13,9.13,0,0,1-2.11-2.14,10.48,10.48,0,0,1-1.42-3l4.39-1.69a6.56,6.56,0,0,0,1.7,3,4.3,4.3,0,0,0,3.18,1.2,5.43,5.43,0,0,0,1.4-.18,4.31,4.31,0,0,0,1.21-.55,2.58,2.58,0,0,0,.85-.89,2.54,2.54,0,0,0,.31-1.25,3,3,0,0,0-.24-1.22,3.05,3.05,0,0,0-.82-1,7.3,7.3,0,0,0-1.48-.91,22,22,0,0,0-2.27-.92l-1.52-.54a11.56,11.56,0,0,1-2-.91,8.7,8.7,0,0,1-1.85-1.39,6.79,6.79,0,0,1-1.37-1.91,5.55,5.55,0,0,1-.53-2.49,6.29,6.29,0,0,1,.57-2.66,6.53,6.53,0,0,1,1.62-2.16,7.67,7.67,0,0,1,2.53-1.46,10.71,10.71,0,0,1,6.5,0,7.93,7.93,0,0,1,2.31,1.25,6.91,6.91,0,0,1,1.54,1.68,8.43,8.43,0,0,1,.87,1.72l-4.12,1.69A4.29,4.29,0,0,0,188,95.36a3.66,3.66,0,0,0-2.51-.81,4.35,4.35,0,0,0-2.52.69,2.11,2.11,0,0,0-1,1.81,2.27,2.27,0,0,0,1,1.84,10.76,10.76,0,0,0,3.08,1.48l1.56.5a18.26,18.26,0,0,1,2.71,1.17,8.5,8.5,0,0,1,2.11,1.58,6.32,6.32,0,0,1,1.35,2.08,7.22,7.22,0,0,1,.47,2.69,6.47,6.47,0,0,1-.78,3.26,6.88,6.88,0,0,1-2,2.25,8.65,8.65,0,0,1-2.73,1.32A10.5,10.5,0,0,1,185.7,115.66Z" transform="translate(0 0)"/><path class="cls-2" d="M38,133.5v-4.69a3,3,0,0,0-.6-2,2,2,0,0,0-1.69-.73,2.39,2.39,0,0,0-1,.21,2.49,2.49,0,0,0-.79.58,2.63,2.63,0,0,0-.53.89,3.25,3.25,0,0,0-.19,1.14v4.57h-.69v-7.9h.69v1.47a3.42,3.42,0,0,1,1-1.18,2.57,2.57,0,0,1,1.61-.48,3,3,0,0,1,1.22.24,2.56,2.56,0,0,1,.91.68,3,3,0,0,1,.57,1,4.15,4.15,0,0,1,.19,1.31v4.83Z" transform="translate(0 0)"/><path class="cls-2" d="M47.24,131.13a4,4,0,0,1-.78,1.32,3.6,3.6,0,0,1-1.18.9,3.39,3.39,0,0,1-3,0,3.79,3.79,0,0,1-1.17-.89,3.93,3.93,0,0,1-.77-1.3,4.34,4.34,0,0,1-.28-1.58v0a4.34,4.34,0,0,1,.28-1.58,4,4,0,0,1,.78-1.32,3.89,3.89,0,0,1,1.18-.91,3.34,3.34,0,0,1,1.48-.33,3.28,3.28,0,0,1,1.48.33,3.82,3.82,0,0,1,1.17.9,3.93,3.93,0,0,1,.77,1.3,4.34,4.34,0,0,1,.28,1.58v0A4.38,4.38,0,0,1,47.24,131.13Zm-.46-1.58a4,4,0,0,0-.22-1.34,3.63,3.63,0,0,0-.64-1.08,3.06,3.06,0,0,0-1-.73,2.77,2.77,0,0,0-1.17-.26,2.63,2.63,0,0,0-1.19.27,2.91,2.91,0,0,0-.94.72,3.37,3.37,0,0,0-.61,1.08,3.79,3.79,0,0,0-.22,1.31v0a3.65,3.65,0,0,0,.23,1.33A3.35,3.35,0,0,0,41.7,132a3.06,3.06,0,0,0,.95.73,2.77,2.77,0,0,0,1.17.26,2.63,2.63,0,0,0,1.19-.27A2.81,2.81,0,0,0,46,132a3.21,3.21,0,0,0,.61-1.07,3.79,3.79,0,0,0,.22-1.31Z" transform="translate(0 0)"/><path class="cls-2" d="M52.11,133.57a2.32,2.32,0,0,1-.61.07,2.58,2.58,0,0,1-.8-.12,1.78,1.78,0,0,1-.64-.4,1.88,1.88,0,0,1-.43-.68,2.81,2.81,0,0,1-.16-1v-5.18h-1v-.69h1v-2.53h.7v2.53H52.7v.69H50.17v5.09a1.47,1.47,0,0,0,.4,1.19,1.55,1.55,0,0,0,1,.34,2.1,2.1,0,0,0,.51-.06,2.89,2.89,0,0,0,.55-.2v.71A3.19,3.19,0,0,1,52.11,133.57Z" transform="translate(0 0)"/><path class="cls-2" d="M59.14,133.5v-1.32a3.66,3.66,0,0,1-.44.55,2.59,2.59,0,0,1-.61.48,3.21,3.21,0,0,1-.77.35,3.5,3.5,0,0,1-.94.13,3.43,3.43,0,0,1-1-.16,3,3,0,0,1-.9-.46,2.58,2.58,0,0,1-.64-.78,2.33,2.33,0,0,1-.25-1.08v0a2.41,2.41,0,0,1,.24-1.1,2.3,2.3,0,0,1,.64-.81,2.88,2.88,0,0,1,1-.5,4.74,4.74,0,0,1,1.29-.17,7.24,7.24,0,0,1,1.32.1,9.73,9.73,0,0,1,1.07.24v-.33a2.38,2.38,0,0,0-.63-1.81,2.43,2.43,0,0,0-1.75-.6,3.84,3.84,0,0,0-1.21.18,5.48,5.48,0,0,0-1,.46l-.26-.67a7.42,7.42,0,0,1,1.21-.51,4.75,4.75,0,0,1,1.36-.19,3,3,0,0,1,2.2.78,3.06,3.06,0,0,1,.81,2.32v4.93Zm0-3.86c-.31-.08-.66-.16-1.07-.24a7.15,7.15,0,0,0-1.38-.11,2.72,2.72,0,0,0-1.77.5,1.62,1.62,0,0,0-.61,1.33v0a1.71,1.71,0,0,0,.17.77,1.67,1.67,0,0,0,.46.56,2.14,2.14,0,0,0,.67.35,2.38,2.38,0,0,0,.79.13,3,3,0,0,0,1-.18,2.85,2.85,0,0,0,.87-.49,2.39,2.39,0,0,0,.6-.77,2.27,2.27,0,0,0,.22-1Z" transform="translate(0 0)"/><path class="cls-2" d="M68.53,122.89a2.22,2.22,0,0,0-.53,0c-1,0-1.45.66-1.45,2v.76h2.52v.69H66.55v7.21h-.7v-7.21h-1v-.69h1v-.78a3,3,0,0,1,.57-2,1.91,1.91,0,0,1,1.58-.7,3.3,3.3,0,0,1,.58,0,2.85,2.85,0,0,1,.5.14V123A4.24,4.24,0,0,0,68.53,122.89Z" transform="translate(0 0)"/><path class="cls-2" d="M70,123.54v-1h.86v1Zm.08,10v-7.9h.7v7.9Z" transform="translate(0 0)"/><path class="cls-2" d="M77.58,132.3a2.05,2.05,0,0,1-.53.73,2.31,2.31,0,0,1-.79.46,2.88,2.88,0,0,1-1,.17,4.12,4.12,0,0,1-1.59-.33,4.63,4.63,0,0,1-1.37-.84l.41-.6a4.86,4.86,0,0,0,1.25.77,3.45,3.45,0,0,0,1.34.27,2,2,0,0,0,1.24-.4,1.33,1.33,0,0,0,.5-1.1v0a1.1,1.1,0,0,0-.15-.59,1.47,1.47,0,0,0-.43-.43,2.33,2.33,0,0,0-.61-.31c-.22-.09-.46-.17-.72-.25l-.88-.29a3.52,3.52,0,0,1-.8-.4,2,2,0,0,1-.58-.59,1.75,1.75,0,0,1-.22-.89v0a2.05,2.05,0,0,1,.18-.87,2.23,2.23,0,0,1,.49-.69,2.36,2.36,0,0,1,.75-.46,2.93,2.93,0,0,1,1-.16,4,4,0,0,1,1.34.24,4.25,4.25,0,0,1,1.23.65l-.37.63a4.4,4.4,0,0,0-1.07-.57,3.13,3.13,0,0,0-1.15-.22,1.71,1.71,0,0,0-1.2.4,1.25,1.25,0,0,0-.45,1v0a1,1,0,0,0,.17.56,1.48,1.48,0,0,0,.45.41,2.71,2.71,0,0,0,.64.3l.75.26c.3.09.58.19.87.3a3.29,3.29,0,0,1,.76.42,2,2,0,0,1,.55.61,1.82,1.82,0,0,1,.2.88v0A2.24,2.24,0,0,1,77.58,132.3Z" transform="translate(0 0)"/><path class="cls-2" d="M84.28,133.24a3.1,3.1,0,0,1-1.7.45,3.16,3.16,0,0,1-1.45-.34,3.87,3.87,0,0,1-1.16-.89,3.93,3.93,0,0,1-.77-1.3,4.34,4.34,0,0,1-.28-1.58v0A4.34,4.34,0,0,1,79.2,128a4.13,4.13,0,0,1,.77-1.32,3.93,3.93,0,0,1,1.16-.91,3.28,3.28,0,0,1,1.45-.33,3.38,3.38,0,0,1,.93.12,3.56,3.56,0,0,1,.77.32,3.9,3.9,0,0,1,.65.48,7,7,0,0,1,.54.55l-.49.56a5.61,5.61,0,0,0-1-.91,2.33,2.33,0,0,0-1.37-.39,2.59,2.59,0,0,0-1.15.26,2.94,2.94,0,0,0-.92.72,3.42,3.42,0,0,0-.62,1.07,3.83,3.83,0,0,0-.23,1.33v0a3.65,3.65,0,0,0,.24,1.33,3.54,3.54,0,0,0,.63,1.09,3.06,3.06,0,0,0,1,.73,2.63,2.63,0,0,0,1.16.26,2.51,2.51,0,0,0,1.36-.38,4.31,4.31,0,0,0,1.06-.94l.48.47A5.55,5.55,0,0,1,84.28,133.24Z" transform="translate(0 0)"/><path class="cls-2" d="M91.89,133.5v-1.32a4.52,4.52,0,0,1-.45.55,2.75,2.75,0,0,1-.6.48,3.61,3.61,0,0,1-.77.35,3.57,3.57,0,0,1-.95.13,3.43,3.43,0,0,1-1-.16,2.79,2.79,0,0,1-.89-.46,2.47,2.47,0,0,1-.65-.78,2.32,2.32,0,0,1-.24-1.08v0a2.35,2.35,0,0,1,.87-1.91,3.07,3.07,0,0,1,1-.5,4.74,4.74,0,0,1,1.29-.17,7.24,7.24,0,0,1,1.32.1,9.41,9.41,0,0,1,1.08.24v-.33a2.15,2.15,0,0,0-2.38-2.41,3.91,3.91,0,0,0-1.22.18,5.48,5.48,0,0,0-1.05.46l-.25-.67a7,7,0,0,1,1.2-.51,4.8,4.8,0,0,1,1.36-.19,2.76,2.76,0,0,1,3,3.1v4.93Zm0-3.86c-.3-.08-.66-.16-1.06-.24a7.32,7.32,0,0,0-1.39-.11,2.69,2.69,0,0,0-1.76.5,1.63,1.63,0,0,0-.62,1.33v0a1.71,1.71,0,0,0,.17.77,1.8,1.8,0,0,0,.46.56,2.25,2.25,0,0,0,.67.35,2.4,2.4,0,0,0,.8.13,3,3,0,0,0,1-.18,2.78,2.78,0,0,0,.88-.49,2.36,2.36,0,0,0,.59-.77,2.14,2.14,0,0,0,.22-1Z" transform="translate(0 0)"/><path class="cls-2" d="M94.59,133.5V122.19h.69V133.5Z" transform="translate(0 0)"/><path class="cls-2" d="M101.67,131.17a3.34,3.34,0,0,0,.64,1,2.5,2.5,0,0,0,.87.61,2.6,2.6,0,0,0,1,.21,2.7,2.7,0,0,0,1.44-.36,4.38,4.38,0,0,0,1-.88l.48.46a4.75,4.75,0,0,1-1.25,1.08,3.35,3.35,0,0,1-1.74.43,3.16,3.16,0,0,1-1.35-.3,3.41,3.41,0,0,1-1.14-.83,4,4,0,0,1-.77-1.31,4.75,4.75,0,0,1-.29-1.69v0a4.72,4.72,0,0,1,.27-1.6,4.05,4.05,0,0,1,.72-1.31,3.38,3.38,0,0,1,1.08-.88,2.88,2.88,0,0,1,1.36-.33,2.91,2.91,0,0,1,1.37.32,3,3,0,0,1,1,.87,4.27,4.27,0,0,1,.67,1.31,5.75,5.75,0,0,1,.23,1.64v.17a.82.82,0,0,1,0,.14h-6A3.76,3.76,0,0,0,101.67,131.17Zm5-2a5.41,5.41,0,0,0-.22-1.16,3.42,3.42,0,0,0-.5-1,2.5,2.5,0,0,0-.79-.69,2.25,2.25,0,0,0-1.09-.25,2.3,2.3,0,0,0-1,.23,2.8,2.8,0,0,0-.82.64,3.61,3.61,0,0,0-.57,1,4,4,0,0,0-.27,1.22Z" transform="translate(0 0)"/><path class="cls-2" d="M108.93,133.5V122.19h.69V133.5Z" transform="translate(0 0)"/><path class="cls-2" d="M112.33,131.17a3.34,3.34,0,0,0,.64,1,2.5,2.5,0,0,0,.87.61,2.6,2.6,0,0,0,1,.21,2.7,2.7,0,0,0,1.44-.36,4.38,4.38,0,0,0,1-.88l.48.46a4.75,4.75,0,0,1-1.25,1.08,3.35,3.35,0,0,1-1.74.43,3.16,3.16,0,0,1-1.35-.3,3.41,3.41,0,0,1-1.14-.83,4,4,0,0,1-.77-1.31,4.75,4.75,0,0,1-.29-1.69v0a4.72,4.72,0,0,1,.27-1.6,4.05,4.05,0,0,1,.72-1.31,3.27,3.27,0,0,1,1.08-.88,2.88,2.88,0,0,1,1.36-.33,2.91,2.91,0,0,1,1.37.32,3.11,3.11,0,0,1,1,.87,4.27,4.27,0,0,1,.67,1.31,5.75,5.75,0,0,1,.23,1.64v.17a.82.82,0,0,1,0,.14h-6A3.76,3.76,0,0,0,112.33,131.17Zm5-2a5.41,5.41,0,0,0-.22-1.16,3.42,3.42,0,0,0-.5-1,2.5,2.5,0,0,0-.79-.69,2.25,2.25,0,0,0-1.09-.25,2.3,2.3,0,0,0-1,.23,2.8,2.8,0,0,0-.82.64,3.61,3.61,0,0,0-.57,1,4,4,0,0,0-.27,1.22Z" transform="translate(0 0)"/><path class="cls-2" d="M122.51,133.57a2.32,2.32,0,0,1-.61.07,2.58,2.58,0,0,1-.8-.12,1.78,1.78,0,0,1-.64-.4,1.88,1.88,0,0,1-.43-.68,2.6,2.6,0,0,1-.16-1v-5.18h-1.05v-.69h1.05v-2.53h.7v2.53h2.53v.69h-2.53v5.09a1.47,1.47,0,0,0,.4,1.19,1.55,1.55,0,0,0,1,.34,2.1,2.1,0,0,0,.51-.06,2.89,2.89,0,0,0,.55-.2v.71A3.19,3.19,0,0,1,122.51,133.57Z" transform="translate(0 0)"/><path class="cls-2" d="M128.41,126.31a2.86,2.86,0,0,0-1.19.26,2.81,2.81,0,0,0-1,.76,3.61,3.61,0,0,0-.69,1.24,5.14,5.14,0,0,0-.25,1.69v3.24h-.69v-7.9h.69v2.24a4.38,4.38,0,0,1,.54-1,3.58,3.58,0,0,1,.73-.77,3.26,3.26,0,0,1,.9-.48,3,3,0,0,1,1-.15v.84Z" transform="translate(0 0)"/><path class="cls-2" d="M136.33,131.13a4.16,4.16,0,0,1-.78,1.32,3.82,3.82,0,0,1-1.18.9,3.23,3.23,0,0,1-1.49.34,3.19,3.19,0,0,1-1.48-.34,3.79,3.79,0,0,1-1.17-.89,4.11,4.11,0,0,1-.77-1.3,4.56,4.56,0,0,1-.27-1.58v0a4.56,4.56,0,0,1,.27-1.58,4.35,4.35,0,0,1,.78-1.32,4,4,0,0,1,1.18-.91,3.39,3.39,0,0,1,1.49-.33,3.31,3.31,0,0,1,1.48.33,3.82,3.82,0,0,1,1.17.9,4.11,4.11,0,0,1,.77,1.3,4.56,4.56,0,0,1,.28,1.58v0A4.61,4.61,0,0,1,136.33,131.13Zm-.46-1.58a4,4,0,0,0-.23-1.34,3.41,3.41,0,0,0-.63-1.08,3.06,3.06,0,0,0-.95-.73,2.79,2.79,0,0,0-1.18-.26,2.66,2.66,0,0,0-1.19.27,3.14,3.14,0,0,0-.94.72,3.56,3.56,0,0,0-.61,1.08,4,4,0,0,0-.22,1.31v0a3.87,3.87,0,0,0,.23,1.33,3.35,3.35,0,0,0,.63,1.09,3,3,0,0,0,1,.73,2.71,2.71,0,0,0,1.17.26,2.66,2.66,0,0,0,1.19-.27A2.91,2.91,0,0,0,135,132a3.4,3.4,0,0,0,.61-1.07,3.79,3.79,0,0,0,.22-1.31Zm-4-5.27h-.63l1.41-1.89h.57l1.41,1.89h-.66l-1.05-1Z" transform="translate(0 0)"/><path class="cls-2" d="M143.67,133.5v-4.69a3,3,0,0,0-.6-2,2,2,0,0,0-1.69-.73,2.39,2.39,0,0,0-1,.21,2.49,2.49,0,0,0-.79.58,2.81,2.81,0,0,0-.53.89,3.25,3.25,0,0,0-.19,1.14v4.57h-.69v-7.9h.69v1.47a3.65,3.65,0,0,1,1-1.18,2.58,2.58,0,0,1,1.62-.48,2.94,2.94,0,0,1,1.21.24,2.6,2.6,0,0,1,.92.68,2.93,2.93,0,0,1,.56,1,4.15,4.15,0,0,1,.19,1.31v4.83Z" transform="translate(0 0)"/><path class="cls-2" d="M146.3,123.54v-1h.87v1Zm.09,10v-7.9h.69v7.9Z" transform="translate(0 0)"/><path class="cls-2" d="M154.11,133.24a3.07,3.07,0,0,1-1.69.45,3.1,3.1,0,0,1-1.45-.34,3.79,3.79,0,0,1-1.17-.89,3.93,3.93,0,0,1-.77-1.3,4.34,4.34,0,0,1-.28-1.58v0A4.34,4.34,0,0,1,149,128a4.13,4.13,0,0,1,.77-1.32,3.85,3.85,0,0,1,1.17-.91,3.22,3.22,0,0,1,1.45-.33,3.26,3.26,0,0,1,.92.12,3.87,3.87,0,0,1,.78.32,3.82,3.82,0,0,1,.64.48,7.14,7.14,0,0,1,.55.55l-.5.56a5.89,5.89,0,0,0-1-.91,2.38,2.38,0,0,0-1.38-.39,2.62,2.62,0,0,0-1.15.26,3.06,3.06,0,0,0-.92.72,3.42,3.42,0,0,0-.62,1.07,3.83,3.83,0,0,0-.22,1.33v0a3.87,3.87,0,0,0,.23,1.33,3.56,3.56,0,0,0,.64,1.09,3,3,0,0,0,.94.73,2.66,2.66,0,0,0,1.16.26,2.57,2.57,0,0,0,1.37-.38,4.27,4.27,0,0,0,1-.94l.48.47A5.34,5.34,0,0,1,154.11,133.24Z" transform="translate(0 0)"/><path class="cls-2" d="M161.72,133.5v-1.32a3.2,3.2,0,0,1-.45.55,2.35,2.35,0,0,1-.6.48,3.4,3.4,0,0,1-.77.35,3.36,3.36,0,0,1-2,0,2.79,2.79,0,0,1-.89-.46,2.44,2.44,0,0,1-.64-.78,2.21,2.21,0,0,1-.25-1.08v0a2.54,2.54,0,0,1,.23-1.1,2.33,2.33,0,0,1,.65-.81,2.88,2.88,0,0,1,1-.5,4.63,4.63,0,0,1,1.29-.17,7.12,7.12,0,0,1,1.31.1,9.41,9.41,0,0,1,1.08.24v-.33a2.38,2.38,0,0,0-.63-1.81,2.43,2.43,0,0,0-1.75-.6,4,4,0,0,0-1.22.18,5.48,5.48,0,0,0-1.05.46l-.25-.67a7.71,7.71,0,0,1,1.2-.51,4.8,4.8,0,0,1,1.36-.19,2.77,2.77,0,0,1,3,3.1v4.93Zm0-3.86c-.3-.08-.65-.16-1.06-.24a7.32,7.32,0,0,0-1.39-.11,2.69,2.69,0,0,0-1.76.5,1.63,1.63,0,0,0-.62,1.33v0a1.71,1.71,0,0,0,.17.77,1.8,1.8,0,0,0,.46.56,2.19,2.19,0,0,0,.68.35,2.34,2.34,0,0,0,.79.13,3,3,0,0,0,1.05-.18,2.85,2.85,0,0,0,.87-.49,2.23,2.23,0,0,0,.59-.77,2.14,2.14,0,0,0,.22-1Z" transform="translate(0 0)"/><path class="cls-3" d="M113.41,9.71,112,7.43a18.42,18.42,0,0,0-5.26-4.76h0A18.68,18.68,0,0,0,81.35,8.6L54.81,50.88a17.83,17.83,0,0,0,6,24.82h0a18.67,18.67,0,0,0,25.37-5.93l10.86-17.3h0l5.8-9.24A21.5,21.5,0,0,1,109,37h0a18.67,18.67,0,0,1,25.38,5.84h0Z" transform="translate(0 0)"/><path class="cls-4" d="M139.34,50.77l-25.95-41a17.56,17.56,0,0,0-1.45-2.28,18,18,0,0,0-5.25-4.76A18.68,18.68,0,0,0,81.32,8.63l-5.95,9.49c.18.34.37.67.58,1L97.06,52.5,108,69.77a18.67,18.67,0,0,0,25.38,5.84h0A17.82,17.82,0,0,0,139.34,50.77Z" transform="translate(0 0)"/><path class="cls-5" d="M139.4,50.87,134.48,43h0a18.67,18.67,0,0,0-25.34-6h0A21.48,21.48,0,0,0,103,43.12l-5.87,9.21h0l10.81,17.33a18.67,18.67,0,0,0,25.34,6h0A17.83,17.83,0,0,0,139.4,50.87Z" transform="translate(0 0)"/><path class="cls-6" d="M70.48,46.94A13.18,13.18,0,1,1,57.31,60.11,13.17,13.17,0,0,1,70.48,46.94ZM60.77,59.38l-.05-1.72h.05L65.31,65h1.2V56H65.36v5.23l0,1.72h0L61,56h-1.4V65h1.15Zm12.61,1.74V60H69.71V57.11h4.06V56H68.56V65h1.15V61.12Zm6,2.55a3.16,3.16,0,0,0,1.14-1.21l-1-.5a1.91,1.91,0,0,1-1.72,1.1,1.94,1.94,0,0,1-1.37-.55,2,2,0,0,1-.6-1.45h4.81v-.12a3.52,3.52,0,0,0-.81-2.47,2.77,2.77,0,0,0-2.16-.88,2.8,2.8,0,0,0-2.17.93,3.31,3.31,0,0,0-.85,2.33,3.25,3.25,0,0,0,.87,2.33,2.9,2.9,0,0,0,2.22.92A3.19,3.19,0,0,0,79.35,63.67ZM76.48,59a1.63,1.63,0,0,1,1.11-.4,1.83,1.83,0,0,1,1.26.42,1.51,1.51,0,0,1,.51,1h-3.5A1.84,1.84,0,0,1,76.48,59Z" transform="translate(0 0)"/></svg>